<svg width="1080" height="1080" viewBox="0 0 1080 1080" fill="none" xmlns="http://www.w3.org/2000/svg">
<rect width="1080" height="1080" fill="#002535"/>
<path d="M1004.76 539.5C1004.76 795.901 796.901 1003.76 540.5 1003.76C284.099 1003.76 76.2441 795.901 76.2441 539.5C76.2441 283.099 284.099 75.2441 540.5 75.2441C796.901 75.2441 1004.76 283.099 1004.76 539.5Z" fill="white"/>
<path d="M540.5 25C824.651 25 1055 255.349 1055 539.5C1055 823.651 824.651 1054 540.5 1054C256.349 1054 26 823.651 26 539.5C26 255.349 256.349 25 540.5 25ZM397.714 432.464H339.664V547.422L244.95 432.464H194.82V648.514H253.507V533.963L347.571 648.514H397.714V432.464ZM581.387 432.464L540.295 493.531L496.995 432.464H422.71L500.725 537.418L420.599 648.514H491.277L538.971 580.797L586.664 648.514H660.871L578.436 536.851L652.675 432.464H581.387ZM669.392 581.747L669.43 581.838L669.467 581.928C674.891 594.867 682.158 606.321 691.311 616.169L691.327 616.187L691.341 616.203C701.456 627.011 713.651 635.675 727.764 642.243L727.921 642.316C742.455 648.839 758.276 652.013 775.203 652.013C791.928 652.013 807.423 649.229 821.493 643.421L821.578 643.387L821.664 643.351C835.465 637.416 847.584 629.176 857.908 618.639L857.914 618.633C867.8 608.531 875.405 596.843 880.695 583.657L880.723 583.584C886.023 570.129 888.614 555.723 888.614 540.489C888.614 525.182 885.892 510.636 880.361 496.965C874.853 483.351 866.926 471.252 856.632 460.747L856.582 460.695L856.53 460.645C846.328 450.467 834.229 442.653 820.388 437.177C806.585 431.628 791.466 428.963 775.203 428.963C758.351 428.963 742.598 432.004 728.11 438.26C714.069 444.203 701.898 452.586 691.747 463.41C682.11 473.501 674.654 485.154 669.392 498.274C664.081 511.518 661.474 525.627 661.474 540.489C661.474 554.794 664.111 568.575 669.392 581.747ZM735.678 579.418L735.618 579.354C731.201 574.609 727.533 568.929 724.663 562.184C722.137 555.759 720.798 548.572 720.798 540.489C720.798 532.154 722.151 524.867 724.665 518.474C727.533 511.727 731.201 506.047 735.618 501.304L735.616 501.302C740.58 496.021 746.354 491.951 753.027 489.035C759.916 486.119 767.27 484.633 775.203 484.633C782.89 484.633 789.998 486.105 796.651 488.997L796.705 489.021L796.757 489.043C803.771 492.015 809.684 496.055 814.626 501.152C818.863 505.539 822.368 511.062 825.023 517.949L825.095 518.132L825.171 518.315C827.838 524.632 829.289 531.957 829.289 540.489C829.289 548.866 827.923 556.187 825.382 562.606C822.727 569.315 819.18 574.956 814.787 579.673C809.855 584.923 803.994 589.003 797.077 591.935L797.022 591.957L796.97 591.981C790.352 594.857 783.145 596.342 775.203 596.342C767.089 596.342 759.691 594.871 752.884 592.017C746.159 588.894 740.48 584.724 735.735 579.482L735.678 579.418Z" fill="#002535"/>
<rect width="1080" height="1080" rx="540" fill="#002535"/>
<path d="M382.61 671.644H320.141L316.952 667.775L204.956 531.89V671.644H133V408.356H195.446L198.635 412.199L311.136 547.78V408.356H382.61V671.644ZM684.033 408.356L672.32 425.128L595.522 535.109L680.486 654.804L692.438 671.644H603.439L600.28 666.994L546.719 588.33L492.28 667.056L489.112 671.644H403.188L414.984 654.847L498.046 536.625L419.344 425.173L407.474 408.356H495.43L498.598 412.998L547.154 484.172L594.414 413.102L597.573 408.356H684.033ZM956 540C956 558.774 952.527 576.76 945.562 593.873L945.525 593.945C938.532 610.773 928.376 625.53 915.124 638.14L915.126 638.142C902.794 650.146 888.237 659.439 871.564 666.056C855.047 672.741 836.954 676 817.444 676C797.529 676 778.934 672.553 761.763 665.53C744.776 658.58 730.042 648.946 717.711 636.583C705.453 624.293 695.847 609.915 688.901 593.536L688.882 593.498L688.864 593.462C681.871 576.625 678.398 558.774 678.398 540C678.398 520.858 682.047 502.649 689.39 485.47L689.427 485.387L689.464 485.304C697.094 468.26 707.55 453.394 720.815 440.797L720.833 440.78C733.11 429.179 747.305 420.231 763.326 413.941C779.849 407.258 797.929 404 817.444 404C837.414 404 856.073 407.633 873.282 415.025C890.513 422.287 905.353 432.217 917.647 444.871L917.648 444.87C929.924 457.179 939.391 471.595 946.022 488.021L946.024 488.02C952.702 504.233 956 521.595 956 540ZM770.085 589.737C782.029 602.253 797.492 608.707 817.444 608.707C826.781 608.707 835.208 607.162 842.817 604.194C850.572 600.847 857.276 596.297 863.019 590.535L863.149 590.41L863.278 590.291C875.868 578.474 882.602 562.148 882.602 540C882.602 528.869 880.847 519.067 877.522 510.456C874.215 501.884 869.485 494.906 863.37 489.314L863.287 489.24L863.213 489.163C857.551 483.756 850.734 479.488 842.633 476.407L842.421 476.327L842.218 476.239C834.597 472.965 826.376 471.293 817.444 471.293C807.828 471.293 798.917 472.979 790.609 476.289L790.61 476.291C782.657 479.588 775.683 484.381 769.605 490.747L769.439 490.917C764.155 496.213 759.749 503.007 756.35 511.535C753.052 519.786 751.315 529.223 751.315 540C751.315 550.776 753.052 560.214 756.35 568.465C759.721 576.922 764.275 583.9 769.919 589.566L770.011 589.651L770.085 589.737Z" fill="white"/>
</svg>
