<svg width="820" height="782" viewBox="0 0 820 782" fill="none" xmlns="http://www.w3.org/2000/svg">
<path d="M416.4 15.8359C402.345 11.4172 387.673 9.18125 372.819 9.18125C328.873 9.18125 287.6 29 260.092 62.7453C251.002 60.9641 241.873 60.0906 232.819 60.0906C168 60.0906 112.037 102.164 93.6547 163.509C43.1453 187.581 11 238.091 11 294.636C11 304.691 19.1453 312.817 29.1812 312.817C39.2172 312.817 47.3625 304.691 47.3625 294.636C47.3625 249.891 74.2172 210.181 115.762 193.491C121.272 191.272 125.344 186.509 126.689 180.745C138.234 131.109 181.87 96.4547 232.816 96.4547C242.616 96.4547 252.616 97.8734 262.542 100.673C270.087 102.8 278.123 99.8734 282.542 93.4187C302.906 63.4375 336.669 45.5469 372.816 45.5469C383.98 45.5469 394.961 47.2188 405.489 50.5281C415.034 53.5469 425.27 48.2188 428.289 38.6375C431.309 29.0734 425.981 18.8547 416.4 15.8359Z" fill="#00B2FF" stroke="#00B2FF" stroke-width="5"/>
<path d="M201 543.727C116.291 543.727 47.3641 489.091 47.3641 421.908C47.3641 403.653 52.5453 385.927 62.7453 369.217C88.7641 326.581 141.745 300.091 201 300.091C211.036 300.091 219.181 291.964 219.181 281.909C219.181 271.855 211.036 263.728 201 263.728C129.164 263.728 64.2906 296.873 31.7094 350.255C17.9641 372.764 11 396.855 11 421.909C11 509.128 96.2359 580.091 201 580.091C211.036 580.091 219.181 571.964 219.181 561.909C219.181 551.855 211.036 543.727 201 543.727Z" fill="#00B2FF" stroke="#00B2FF" stroke-width="5"/>
<path d="M689.764 118.527C661.328 67.2906 605.274 34.6359 544.638 34.6359C515.364 34.6359 486.438 42.2719 461.002 56.7266C411.092 85.1266 380.092 137.272 380.092 192.817C380.092 199.872 362.838 212.836 334.638 212.836C324.602 212.836 316.456 220.963 316.456 231.017C316.456 241.072 324.602 249.198 334.638 249.198C360.764 249.198 383.402 240.998 398.273 228.234C413.147 240.998 435.783 249.198 461.909 249.198C471.945 249.198 480.091 241.072 480.091 231.017C480.091 220.963 471.945 212.836 461.909 212.836C433.709 212.836 416.455 199.872 416.455 192.817C416.455 149.672 439.836 110.617 478.981 88.3438C498.945 77 521.636 71 544.636 71C594.345 71 640 98.8188 660.927 141.873C663.272 146.709 667.653 150.255 672.853 151.547C732.78 166.583 774.634 220.166 774.634 281.911C774.634 287.347 774.308 292.692 773.689 297.947C772.508 307.928 779.634 316.966 789.598 318.147C790.327 318.238 791.053 318.273 791.78 318.273C800.853 318.273 808.706 311.473 809.816 302.238C810.597 295.564 810.997 288.802 810.997 281.911C811 206.273 761.564 140.236 689.764 118.527Z" fill="#00B2FF" stroke="#00B2FF" stroke-width="5"/>
<path d="M436.455 301.909C384.327 301.909 341.909 344.328 341.909 396.455C341.909 406.509 350.055 414.636 360.091 414.636C370.127 414.636 378.272 406.509 378.272 396.455C378.272 364.364 404.381 338.273 436.453 338.273C446.489 338.273 454.634 330.147 454.634 320.092C454.636 310.036 446.491 301.909 436.455 301.909Z" fill="#00B2FF" stroke="#00B2FF" stroke-width="5"/>
<path d="M563.727 378.273C525.636 378.273 494.636 409.273 494.636 447.364C494.636 514.528 437.127 569.183 366.455 569.183C334.309 569.183 303.581 557.837 279.891 537.219C253.436 514.183 238.272 481.438 238.272 447.364C238.272 437.309 230.127 429.183 220.091 429.183C210.055 429.183 201.909 437.309 201.909 447.364C201.909 491.964 221.619 534.709 256.019 564.637C286.328 591.019 325.545 605.547 366.455 605.547C457.181 605.547 531 534.583 531 447.366C531 429.311 545.691 414.639 563.727 414.639C573.763 414.639 581.908 406.513 581.908 396.458C581.908 386.403 573.764 378.273 563.727 378.273Z" fill="#00B2FF" stroke="#00B2FF" stroke-width="5"/>
<path d="M785.545 434.655C785.545 413.855 781.691 393.291 774.091 373.473C748.909 307.837 684.836 263.728 614.636 263.728C604.6 263.728 596.455 271.855 596.455 281.909C596.455 291.964 604.6 300.091 614.636 300.091C670.745 300.091 720 334 740.145 386.491C746.145 402.127 749.181 418.327 749.181 434.636C749.181 512.581 697.945 569.162 627.362 569.162C626.508 569.162 537.727 570.944 493.781 592.908C487.617 595.998 483.727 602.289 483.727 609.181C483.727 640.162 513.472 738.872 520.853 751.908C532.689 772.817 551.727 772.817 589.634 772.817C598.634 772.817 678.125 771.908 697.453 740.527C702.98 731.581 703.38 720.963 699.127 712.653L676.127 656.834C672.291 647.544 661.653 643.144 652.381 646.944C643.091 650.78 638.672 661.398 642.491 670.689L664.181 723.198C655.217 728.744 627.581 736.453 589.636 736.453C578.927 736.453 556.617 736.453 552.672 734.289C547.472 723.78 526.436 653.889 521.253 620.816C556.872 608.489 616.562 605.542 627.362 605.542C719.019 605.545 785.545 533.673 785.545 434.655Z" fill="#00B2FF" stroke="#00B2FF" stroke-width="5"/>
</svg>
