<svg width="1543" height="444" viewBox="0 0 1543 444" fill="none" xmlns="http://www.w3.org/2000/svg">
<path d="M221.817 0C344.324 0 443.635 99.3109 443.635 221.817C443.635 344.324 344.324 443.635 221.817 443.635C99.3109 443.635 0 344.324 0 221.817C0 99.3109 99.3109 0 221.817 0ZM160.258 175.671H135.231V225.233L96.0253 177.648L94.3963 175.671H72.7838V268.817H98.0857V219.43L137.01 266.832L138.639 268.817H160.258V175.671ZM239.445 175.671L237.832 178.068L221.729 201.999L204.684 177.959L203.061 175.671H171.034L177.457 184.311L204.669 220.92L176.311 260.239L170.124 268.817H200.596L202.218 266.514L221.158 239.622L240.098 266.514L241.72 268.817H273.713L267.345 260.19L238.173 220.675L264.1 184.219L270.18 175.671H239.445ZM277.387 240.032L277.403 240.071L277.419 240.11C279.758 245.688 282.891 250.626 286.837 254.872L286.844 254.879L286.85 254.886C291.211 259.546 296.468 263.282 302.553 266.113L302.62 266.144C308.887 268.957 315.708 270.325 323.005 270.325C330.216 270.325 336.896 269.125 342.963 266.621L342.999 266.606L343.036 266.591C348.986 264.032 354.211 260.479 358.662 255.937L358.665 255.934C362.927 251.579 366.206 246.54 368.486 240.855L368.498 240.823C370.783 235.022 371.9 228.812 371.9 222.244C371.9 215.645 370.727 209.373 368.343 203.479C365.968 197.61 362.55 192.394 358.112 187.865L358.09 187.842L358.068 187.82C353.67 183.433 348.453 180.064 342.486 177.703C336.535 175.31 330.017 174.161 323.005 174.161C315.74 174.161 308.948 175.472 302.702 178.17C296.649 180.732 291.401 184.346 287.025 189.013C282.87 193.363 279.655 198.387 277.387 204.043C275.097 209.753 273.973 215.836 273.973 222.244C273.973 228.411 275.11 234.353 277.387 240.032ZM305.965 239.027L305.939 239C304.035 236.954 302.453 234.505 301.216 231.597C300.127 228.827 299.55 225.729 299.55 222.244C299.55 218.65 300.133 215.509 301.217 212.752C302.453 209.844 304.035 207.395 305.939 205.35L305.938 205.349C308.078 203.072 310.568 201.317 313.444 200.06C316.415 198.803 319.585 198.163 323.005 198.163C326.319 198.163 329.384 198.797 332.252 200.044L332.276 200.054L332.298 200.064C335.322 201.345 337.871 203.087 340.002 205.284C341.828 207.176 343.34 209.557 344.484 212.526L344.515 212.605L344.548 212.684C345.698 215.407 346.324 218.566 346.324 222.244C346.324 225.855 345.734 229.012 344.639 231.779C343.495 234.672 341.965 237.104 340.071 239.137C337.945 241.401 335.418 243.16 332.436 244.424L332.412 244.433L332.39 244.444C329.537 245.684 326.429 246.324 323.005 246.324C319.507 246.324 316.318 245.69 313.383 244.459C310.484 243.113 308.035 241.315 305.989 239.055L305.965 239.027ZM766.857 364.866H708.259L705.268 361.245L600.211 234.092V364.866H532.714V118.496H591.291L594.282 122.091L699.812 248.961V118.496H766.857V364.866ZM1006.07 118.496V181.917H874.291V207.705H992.026V270.674H874.291V301.897H1010.59V364.866H805.888V118.496H1006.07ZM1287.88 118.496L1276.9 134.19L1204.86 237.104L1284.56 349.109L1295.77 364.866H1212.28L1209.32 360.515L1159.08 286.905L1108.01 360.573L1105.04 364.866H1024.44L1035.51 349.148L1113.42 238.523L1039.6 134.232L1028.46 118.496H1110.97L1113.94 122.839L1159.49 189.44L1203.82 122.937L1206.78 118.496H1287.88ZM1543 241.68C1543 259.248 1539.74 276.079 1533.21 292.092L1533.17 292.159C1526.61 307.906 1517.09 321.715 1504.66 333.515L1504.66 333.516C1493.09 344.749 1479.44 353.445 1463.8 359.637V359.636C1448.3 365.891 1431.33 368.942 1413.03 368.942C1394.35 368.942 1376.91 365.716 1360.8 359.145C1344.86 352.641 1331.04 343.626 1319.48 332.058C1307.98 320.557 1298.97 307.104 1292.45 291.776L1292.43 291.741L1292.42 291.707C1285.86 275.953 1282.6 259.248 1282.6 241.68C1282.6 223.769 1286.02 206.73 1292.91 190.655L1292.94 190.578L1292.98 190.5C1300.14 174.55 1309.94 160.64 1322.39 148.852L1322.4 148.836C1333.92 137.981 1347.24 129.608 1362.26 123.722C1377.76 117.469 1394.72 114.42 1413.03 114.42C1431.76 114.42 1449.26 117.819 1465.41 124.736V124.737C1481.57 131.533 1495.49 140.824 1507.02 152.664L1507.02 152.663C1518.54 164.181 1527.42 177.671 1533.64 193.042L1533.64 193.041C1539.91 208.212 1543 224.458 1543 241.68ZM1368.6 288.222C1379.81 299.934 1394.31 305.973 1413.03 305.973C1421.79 305.973 1429.69 304.528 1436.83 301.75C1444.1 298.618 1450.39 294.36 1455.78 288.968L1455.9 288.852L1456.02 288.74C1467.83 277.682 1474.15 262.406 1474.15 241.68C1474.15 231.265 1472.5 222.093 1469.38 214.036C1466.28 206.014 1461.85 199.484 1456.11 194.251L1456.03 194.182L1455.96 194.11C1450.65 189.051 1444.26 185.057 1436.66 182.174L1436.46 182.099L1436.27 182.017C1429.12 178.953 1421.41 177.389 1413.03 177.389C1404.01 177.389 1395.65 178.967 1387.86 182.064L1387.86 182.065C1380.4 185.151 1373.86 189.636 1368.15 195.593L1368 195.752C1363.04 200.707 1358.91 207.065 1355.72 215.045C1352.63 222.765 1351 231.596 1351 241.68C1351 251.764 1352.63 260.596 1355.72 268.317C1358.88 276.23 1363.15 282.76 1368.45 288.062L1368.54 288.142L1368.6 288.222Z" fill="#002535"/>
<path d="M421.973 221.817C421.973 332.36 332.36 421.973 221.817 421.973C111.275 421.973 21.6619 332.36 21.6619 221.817C21.6619 111.275 111.275 21.6619 221.817 21.6619C332.36 21.6619 421.973 111.275 421.973 221.817Z" fill="white"/>
<path d="M221.817 0C344.324 0 443.635 99.3109 443.635 221.817C443.635 344.324 344.324 443.635 221.817 443.635C99.3109 443.635 0 344.324 0 221.817C0 99.3109 99.3109 0 221.817 0ZM160.258 175.671H135.231V225.233L94.3963 175.671H72.7838V268.817H98.0857V219.43L138.639 268.817H160.258V175.671ZM239.445 175.671L221.729 201.999L203.061 175.671H171.034L204.669 220.92L170.124 268.817H200.596L221.158 239.622L241.72 268.817H273.713L238.173 220.675L270.18 175.671H239.445ZM277.387 240.032L277.403 240.071L277.419 240.11C279.758 245.688 282.891 250.626 286.837 254.872L286.844 254.879L286.85 254.886C291.211 259.546 296.468 263.282 302.553 266.113L302.62 266.144C308.887 268.957 315.708 270.325 323.005 270.325C330.216 270.325 336.896 269.125 342.963 266.621L342.999 266.606L343.036 266.591C348.986 264.032 354.211 260.479 358.662 255.937L358.665 255.934C362.927 251.579 366.206 246.54 368.486 240.855L368.498 240.823C370.783 235.022 371.9 228.812 371.9 222.244C371.9 215.645 370.727 209.373 368.342 203.479C365.967 197.61 362.55 192.394 358.112 187.865L358.09 187.842L358.068 187.82C353.67 183.433 348.453 180.064 342.486 177.703C336.535 175.31 330.017 174.161 323.005 174.161C315.74 174.161 308.948 175.472 302.702 178.17C296.649 180.732 291.401 184.346 287.025 189.013C282.87 193.363 279.655 198.387 277.387 204.043C275.097 209.753 273.973 215.836 273.973 222.244C273.973 228.411 275.11 234.353 277.387 240.032ZM305.965 239.027L305.939 239C304.035 236.954 302.453 234.505 301.216 231.597C300.127 228.827 299.55 225.729 299.55 222.244C299.55 218.65 300.133 215.509 301.217 212.752C302.453 209.844 304.035 207.395 305.939 205.35L305.938 205.349C308.078 203.072 310.568 201.317 313.444 200.06C316.415 198.803 319.585 198.163 323.005 198.163C326.319 198.163 329.384 198.797 332.252 200.044L332.276 200.054L332.298 200.064C335.322 201.345 337.871 203.087 340.002 205.284C341.828 207.176 343.34 209.557 344.484 212.526L344.515 212.605L344.548 212.684C345.698 215.407 346.324 218.566 346.324 222.244C346.324 225.855 345.734 229.012 344.639 231.779C343.495 234.672 341.965 237.104 340.071 239.137C337.945 241.401 335.418 243.16 332.436 244.424L332.412 244.433L332.39 244.444C329.537 245.684 326.429 246.324 323.005 246.324C319.507 246.324 316.318 245.69 313.383 244.459C310.484 243.113 308.035 241.315 305.989 239.055L305.965 239.027Z" fill="#002535"/>
<rect width="444" height="444" rx="222" fill="#002535"/>
<path d="M413.066 221.794C413.066 327.204 327.615 412.655 222.206 412.655C116.796 412.655 31.3448 327.204 31.3448 221.794C31.3448 116.385 116.796 30.9337 222.206 30.9337C327.615 30.9337 413.066 116.385 413.066 221.794Z" fill="white"/>
<path d="M222.206 10.2778C339.023 10.2778 433.722 104.977 433.722 221.794C433.722 338.612 339.023 433.311 222.206 433.311C105.388 433.311 10.6888 338.612 10.6888 221.794C10.6888 104.977 105.388 10.2778 222.206 10.2778ZM163.505 177.791H139.64V225.051L100.702 177.791H80.0928V266.611H104.22V219.518L142.89 266.611H163.505V177.791ZM239.014 177.791L222.121 202.896L204.32 177.791H173.781L205.853 220.938L172.913 266.611H201.969L221.577 238.772L241.184 266.611H271.691L237.802 220.705L268.322 177.791H239.014ZM275.195 239.163L275.21 239.2L275.225 239.237C277.455 244.556 280.443 249.265 284.206 253.314L284.212 253.321L284.218 253.328C288.376 257.771 293.39 261.333 299.192 264.033L299.256 264.063C305.232 266.745 311.736 268.05 318.694 268.05C325.57 268.05 331.941 266.905 337.725 264.518L337.76 264.503L337.795 264.489C343.469 262.049 348.451 258.661 352.696 254.329L352.698 254.327C356.762 250.174 359.889 245.369 362.063 239.948L362.075 239.918C364.254 234.386 365.319 228.464 365.319 222.201C365.319 215.908 364.2 209.928 361.926 204.308C359.662 198.711 356.403 193.737 352.171 189.418L352.15 189.397L352.129 189.376C347.935 185.192 342.961 181.98 337.271 179.728C331.596 177.447 325.38 176.351 318.694 176.351C311.766 176.351 305.29 177.602 299.334 180.174C293.562 182.617 288.558 186.063 284.385 190.513C280.423 194.662 277.358 199.452 275.195 204.846C273.011 210.291 271.939 216.091 271.939 222.201C271.939 228.082 273.023 233.748 275.195 239.163ZM302.445 238.205L302.421 238.179C300.605 236.228 299.097 233.893 297.917 231.12C296.878 228.479 296.328 225.524 296.328 222.201C296.328 218.775 296.884 215.779 297.918 213.15C299.097 210.377 300.605 208.042 302.421 206.092L302.42 206.091C304.461 203.92 306.835 202.246 309.578 201.048C312.41 199.849 315.433 199.238 318.694 199.238C321.855 199.238 324.777 199.843 327.512 201.032L327.534 201.042L327.556 201.051C330.439 202.273 332.87 203.934 334.902 206.029C336.643 207.833 338.084 210.103 339.176 212.935L339.206 213.01L339.237 213.085C340.333 215.682 340.93 218.694 340.93 222.201C340.93 225.645 340.368 228.655 339.324 231.294C338.232 234.052 336.774 236.371 334.968 238.31C332.94 240.468 330.531 242.145 327.687 243.351L327.665 243.36L327.643 243.37C324.922 244.552 321.96 245.163 318.694 245.163C315.359 245.163 312.317 244.558 309.519 243.385C306.754 242.101 304.419 240.386 302.469 238.232L302.445 238.205Z" fill="#002535"/>
</svg>
