<svg width="1781" height="512" viewBox="0 0 1781 512" fill="none" xmlns="http://www.w3.org/2000/svg">
<path d="M256 0C397.385 0 512 114.615 512 256C512 397.385 397.385 512 256 512C114.615 512 0 397.385 0 256C0 114.615 114.615 0 256 0ZM184.954 202.742H156.07V259.942L110.823 205.024L108.943 202.742H84V310.242H113.201V253.245L158.124 307.952L160.004 310.242H184.954V202.742ZM276.344 202.742L274.483 205.509L255.898 233.127L236.226 205.383L234.353 202.742H197.391L204.804 212.714L236.209 254.964L203.481 300.342L196.341 310.242H231.508L233.38 307.584L255.239 276.548L277.098 307.584L278.97 310.242H315.893L308.543 300.286L274.876 254.682L304.799 212.608L311.815 202.742H276.344ZM320.133 277.021L320.152 277.066L320.17 277.111C322.869 283.549 326.485 289.248 331.039 294.148L331.047 294.157L331.054 294.165C336.087 299.543 342.155 303.854 349.177 307.122L349.255 307.158C356.487 310.404 364.359 311.983 372.781 311.983C381.103 311.983 388.813 310.598 395.814 307.708L395.856 307.691L395.899 307.673C402.766 304.72 408.796 300.62 413.933 295.377L413.936 295.374C418.855 290.348 422.639 284.532 425.271 277.971L425.285 277.935C427.922 271.24 429.211 264.072 429.211 256.492C429.211 248.876 427.857 241.638 425.105 234.836C422.364 228.062 418.42 222.042 413.298 216.815L413.273 216.789L413.247 216.764C408.171 211.7 402.151 207.812 395.264 205.087C388.396 202.326 380.873 201 372.781 201C364.396 201 356.558 202.513 349.349 205.626C342.363 208.583 336.307 212.754 331.256 218.14C326.461 223.161 322.751 228.959 320.133 235.487C317.49 242.077 316.193 249.097 316.193 256.492C316.193 263.61 317.505 270.467 320.133 277.021ZM353.115 275.862L353.085 275.83C350.887 273.469 349.062 270.643 347.634 267.287C346.377 264.09 345.711 260.514 345.711 256.492C345.711 252.345 346.384 248.719 347.635 245.538C349.062 242.181 350.887 239.355 353.085 236.995L353.084 236.994C355.554 234.366 358.427 232.341 361.747 230.89C365.175 229.439 368.834 228.7 372.781 228.7C376.606 228.7 380.143 229.432 383.453 230.871L383.48 230.883L383.506 230.894C386.996 232.373 389.938 234.383 392.397 236.919C394.505 239.102 396.249 241.85 397.57 245.277L397.606 245.368L397.644 245.459C398.971 248.602 399.693 252.247 399.693 256.492C399.693 260.66 399.013 264.303 397.749 267.497C396.428 270.835 394.663 273.642 392.477 275.989C390.023 278.601 387.107 280.631 383.665 282.09L383.638 282.101L383.612 282.113C380.319 283.544 376.733 284.283 372.781 284.283C368.744 284.283 365.063 283.551 361.676 282.131C358.33 280.577 355.504 278.502 353.143 275.894L353.115 275.862ZM885.032 421.093H817.404L813.951 416.914L692.705 270.166V421.093H614.806V136.756H682.41L685.862 140.906L807.655 287.327V136.756H885.032V421.093ZM1161.11 136.756V209.951H1009.02V239.713H1144.9V312.386H1009.02V348.42H1166.33V421.093H930.077V136.756H1161.11ZM1486.35 136.756L1473.67 154.869L1390.53 273.642L1482.51 402.907L1495.45 421.093H1399.1L1395.68 416.071L1337.69 331.118L1278.76 416.138L1275.33 421.093H1182.31L1195.08 402.953L1285 275.28L1199.8 154.918L1186.95 136.756H1282.17L1285.6 141.769L1338.17 218.633L1389.33 141.882L1392.75 136.756H1486.35ZM1780.78 278.924C1780.78 299.199 1777.02 318.623 1769.48 337.104L1769.44 337.182C1761.87 355.355 1750.87 371.292 1736.53 384.91L1736.53 384.912C1723.18 397.876 1707.42 407.912 1689.37 415.058V415.057C1671.49 422.276 1651.9 425.797 1630.78 425.797C1609.22 425.797 1589.09 422.074 1570.5 414.49C1552.11 406.984 1536.16 396.58 1522.81 383.229C1509.54 369.956 1499.14 354.429 1491.62 336.74L1491.6 336.699L1491.58 336.66C1484.01 318.478 1480.25 299.199 1480.25 278.924C1480.25 258.252 1484.2 238.588 1492.15 220.035L1492.19 219.946L1492.23 219.856C1500.49 201.449 1511.81 185.395 1526.17 171.791L1526.19 171.772C1539.48 159.244 1554.85 149.581 1572.19 142.788C1590.08 135.571 1609.65 132.052 1630.78 132.052C1652.4 132.052 1672.6 135.975 1691.23 143.958V143.959C1709.88 151.802 1725.95 162.525 1739.26 176.19L1739.26 176.189C1752.55 189.482 1762.8 205.051 1769.98 222.79L1769.98 222.789C1777.21 240.298 1780.78 259.048 1780.78 278.924ZM1579.51 332.638C1592.44 346.154 1609.18 353.124 1630.78 353.124C1640.89 353.124 1650.01 351.456 1658.25 348.25C1666.64 344.636 1673.9 339.722 1680.12 333.499L1680.26 333.365L1680.4 333.236C1694.03 320.474 1701.32 302.843 1701.32 278.924C1701.32 266.904 1699.42 256.318 1695.82 247.019C1692.24 237.761 1687.12 230.225 1680.5 224.186L1680.41 224.106L1680.33 224.023C1674.2 218.184 1666.82 213.575 1658.05 210.248L1657.82 210.161L1657.6 210.066C1649.35 206.53 1640.45 204.725 1630.78 204.725C1620.37 204.725 1610.72 206.546 1601.73 210.12L1601.73 210.122C1593.12 213.683 1585.57 218.859 1578.99 225.734L1578.81 225.918C1573.09 231.637 1568.32 238.974 1564.64 248.184C1561.07 257.094 1559.19 267.286 1559.19 278.924C1559.19 290.562 1561.07 300.755 1564.64 309.665C1568.29 318.798 1573.22 326.334 1579.33 332.453L1579.43 332.545L1579.51 332.638Z" fill="white"/>
<path d="M885.226 420.041H817.598L814.145 415.862L692.899 269.114V420.041H615V135.704H682.604L686.056 139.854L807.849 286.275V135.704H885.226V420.041ZM1161.3 135.704V208.899H1009.21V238.661H1145.09V311.334H1009.21V347.368H1166.52V420.041H930.271V135.704H1161.3ZM1486.54 135.704L1473.86 153.817L1390.72 272.59L1482.7 401.855L1495.64 420.041H1399.29L1395.87 415.019L1337.89 330.066L1278.95 415.086L1275.52 420.041H1182.5L1195.27 401.901L1285.2 274.228L1199.99 153.866L1187.14 135.704H1282.36L1285.79 140.717L1338.36 217.581L1389.52 140.83L1392.94 135.704H1486.54ZM1780.97 277.872C1780.97 298.147 1777.21 317.571 1769.67 336.052L1769.63 336.13C1762.06 354.303 1751.07 370.24 1736.72 383.858L1736.72 383.86C1723.37 396.824 1707.61 406.86 1689.56 414.006V414.005C1671.68 421.224 1652.1 424.745 1630.97 424.745C1609.41 424.745 1589.28 421.022 1570.69 413.438C1552.3 405.932 1536.35 395.528 1523 382.177C1509.73 368.904 1499.33 353.377 1491.81 335.688L1491.79 335.647L1491.77 335.608C1484.2 317.426 1480.44 298.147 1480.44 277.872C1480.44 257.2 1484.39 237.536 1492.34 218.983L1492.38 218.894L1492.42 218.804C1500.68 200.397 1512 184.343 1526.36 170.739L1526.38 170.72C1539.67 158.192 1555.04 148.529 1572.39 141.736C1590.27 134.519 1609.85 131 1630.97 131C1652.59 131 1672.79 134.923 1691.42 142.906V142.907C1710.08 150.75 1726.14 161.473 1739.45 175.138L1739.45 175.137C1752.74 188.43 1762.99 203.999 1770.17 221.738L1770.17 221.737C1777.4 239.246 1780.97 257.996 1780.97 277.872ZM1579.7 331.586C1592.63 345.102 1609.37 352.072 1630.97 352.072C1641.08 352.072 1650.2 350.404 1658.44 347.198C1666.84 343.584 1674.1 338.67 1680.31 332.447L1680.45 332.313L1680.59 332.184C1694.22 319.422 1701.51 301.791 1701.51 277.872C1701.51 265.852 1699.61 255.266 1696.01 245.967C1692.43 236.709 1687.31 229.173 1680.69 223.134L1680.6 223.054L1680.52 222.971C1674.39 217.132 1667.01 212.523 1658.24 209.196L1658.01 209.109L1657.79 209.014C1649.54 205.478 1640.64 203.673 1630.97 203.673C1620.56 203.673 1610.92 205.494 1601.92 209.068L1601.92 209.07C1593.31 212.631 1585.76 217.807 1579.18 224.682L1579 224.866C1573.28 230.585 1568.51 237.922 1564.83 247.132C1561.26 256.042 1559.38 266.234 1559.38 277.872C1559.38 289.51 1561.26 299.703 1564.83 308.613C1568.48 317.746 1573.41 325.282 1579.52 331.401L1579.62 331.493L1579.7 331.586Z" fill="white"/>
</svg>
