<svg width="1543" height="444" viewBox="0 0 1543 444" fill="none" xmlns="http://www.w3.org/2000/svg">
<path d="M221.817 0C344.324 0 443.635 99.3109 443.635 221.817C443.635 344.324 344.324 443.635 221.817 443.635C99.3109 443.635 0 344.324 0 221.817C0 99.3109 99.3109 0 221.817 0ZM160.258 175.671H135.231V225.233L96.0253 177.648L94.3963 175.671H72.7838V268.817H98.0857V219.43L137.01 266.832L138.639 268.817H160.258V175.671ZM239.445 175.671L237.832 178.068L221.729 201.999L204.684 177.959L203.061 175.671H171.034L177.457 184.311L204.669 220.92L176.311 260.239L170.124 268.817H200.596L202.218 266.514L221.158 239.622L240.098 266.514L241.72 268.817H273.713L267.345 260.19L238.173 220.675L264.1 184.219L270.18 175.671H239.445ZM277.387 240.032L277.403 240.071L277.419 240.11C279.758 245.688 282.891 250.626 286.837 254.872L286.844 254.879L286.85 254.886C291.211 259.546 296.468 263.282 302.553 266.113L302.62 266.144C308.887 268.957 315.708 270.325 323.005 270.325C330.216 270.325 336.896 269.125 342.963 266.621L342.999 266.606L343.036 266.591C348.986 264.032 354.211 260.479 358.662 255.937L358.665 255.934C362.927 251.579 366.206 246.54 368.486 240.855L368.498 240.823C370.783 235.022 371.9 228.812 371.9 222.244C371.9 215.645 370.727 209.373 368.343 203.479C365.968 197.61 362.55 192.394 358.112 187.865L358.09 187.842L358.068 187.82C353.67 183.433 348.453 180.064 342.486 177.703C336.535 175.31 330.017 174.161 323.005 174.161C315.74 174.161 308.948 175.472 302.702 178.17C296.649 180.732 291.401 184.346 287.025 189.013C282.87 193.363 279.655 198.387 277.387 204.043C275.097 209.753 273.973 215.836 273.973 222.244C273.973 228.411 275.11 234.353 277.387 240.032ZM305.965 239.027L305.939 239C304.035 236.954 302.453 234.505 301.216 231.597C300.127 228.827 299.55 225.729 299.55 222.244C299.55 218.65 300.133 215.509 301.217 212.752C302.453 209.844 304.035 207.395 305.939 205.35L305.938 205.349C308.078 203.072 310.568 201.317 313.444 200.06C316.415 198.803 319.585 198.163 323.005 198.163C326.319 198.163 329.384 198.797 332.252 200.044L332.276 200.054L332.298 200.064C335.322 201.345 337.871 203.087 340.002 205.284C341.828 207.176 343.34 209.557 344.484 212.526L344.515 212.605L344.548 212.684C345.698 215.407 346.324 218.566 346.324 222.244C346.324 225.855 345.734 229.012 344.639 231.779C343.495 234.672 341.965 237.104 340.071 239.137C337.945 241.401 335.418 243.16 332.436 244.424L332.412 244.433L332.39 244.444C329.537 245.684 326.429 246.324 323.005 246.324C319.507 246.324 316.318 245.69 313.383 244.459C310.484 243.113 308.035 241.315 305.989 239.055L305.965 239.027ZM766.857 364.866H708.259L705.268 361.245L600.211 234.092V364.866H532.714V118.496H591.291L594.282 122.091L699.812 248.961V118.496H766.857V364.866ZM1006.07 118.496V181.917H874.291V207.705H992.026V270.674H874.291V301.897H1010.59V364.866H805.888V118.496H1006.07ZM1287.88 118.496L1276.9 134.19L1204.86 237.104L1284.56 349.109L1295.77 364.866H1212.28L1209.32 360.515L1159.08 286.905L1108.01 360.573L1105.04 364.866H1024.44L1035.51 349.148L1113.42 238.523L1039.6 134.232L1028.46 118.496H1110.97L1113.94 122.839L1159.49 189.44L1203.82 122.937L1206.78 118.496H1287.88ZM1543 241.68C1543 259.248 1539.74 276.079 1533.21 292.092L1533.17 292.159C1526.61 307.906 1517.09 321.715 1504.66 333.515L1504.66 333.516C1493.09 344.749 1479.44 353.445 1463.8 359.637V359.636C1448.3 365.891 1431.33 368.942 1413.03 368.942C1394.35 368.942 1376.91 365.716 1360.8 359.145C1344.86 352.641 1331.04 343.626 1319.48 332.058C1307.98 320.557 1298.97 307.104 1292.45 291.776L1292.43 291.741L1292.42 291.707C1285.86 275.953 1282.6 259.248 1282.6 241.68C1282.6 223.769 1286.02 206.73 1292.91 190.655L1292.94 190.578L1292.98 190.5C1300.14 174.55 1309.94 160.64 1322.39 148.852L1322.4 148.836C1333.92 137.981 1347.24 129.608 1362.26 123.722C1377.76 117.469 1394.72 114.42 1413.03 114.42C1431.76 114.42 1449.26 117.819 1465.41 124.736V124.737C1481.57 131.533 1495.49 140.824 1507.02 152.664L1507.02 152.663C1518.54 164.181 1527.42 177.671 1533.64 193.042L1533.64 193.041C1539.91 208.212 1543 224.458 1543 241.68ZM1368.6 288.222C1379.81 299.934 1394.31 305.973 1413.03 305.973C1421.79 305.973 1429.69 304.528 1436.83 301.75C1444.1 298.618 1450.39 294.36 1455.78 288.968L1455.9 288.852L1456.02 288.74C1467.83 277.682 1474.15 262.406 1474.15 241.68C1474.15 231.265 1472.5 222.093 1469.38 214.036C1466.28 206.014 1461.85 199.484 1456.11 194.251L1456.03 194.182L1455.96 194.11C1450.65 189.051 1444.26 185.057 1436.66 182.174L1436.46 182.099L1436.27 182.017C1429.12 178.953 1421.41 177.389 1413.03 177.389C1404.01 177.389 1395.65 178.967 1387.86 182.064L1387.86 182.065C1380.4 185.151 1373.86 189.636 1368.15 195.593L1368 195.752C1363.04 200.707 1358.91 207.065 1355.72 215.045C1352.63 222.765 1351 231.596 1351 241.68C1351 251.764 1352.63 260.596 1355.72 268.317C1358.88 276.23 1363.15 282.76 1368.45 288.062L1368.54 288.142L1368.6 288.222Z" fill="#002535"/>
<path d="M421.973 221.817C421.973 332.36 332.36 421.973 221.817 421.973C111.275 421.973 21.6619 332.36 21.6619 221.817C21.6619 111.275 111.275 21.6619 221.817 21.6619C332.36 21.6619 421.973 111.275 421.973 221.817Z" fill="white"/>
<path d="M221.817 0C344.324 0 443.635 99.3109 443.635 221.817C443.635 344.324 344.324 443.635 221.817 443.635C99.3109 443.635 0 344.324 0 221.817C0 99.3109 99.3109 0 221.817 0ZM160.258 175.671H135.231V225.233L94.3963 175.671H72.7838V268.817H98.0857V219.43L138.639 268.817H160.258V175.671ZM239.445 175.671L221.729 201.999L203.061 175.671H171.034L204.669 220.92L170.124 268.817H200.596L221.158 239.622L241.72 268.817H273.713L238.173 220.675L270.18 175.671H239.445ZM277.387 240.032L277.403 240.071L277.419 240.11C279.758 245.688 282.891 250.626 286.837 254.872L286.844 254.879L286.85 254.886C291.211 259.546 296.468 263.282 302.553 266.113L302.62 266.144C308.887 268.957 315.708 270.325 323.005 270.325C330.216 270.325 336.896 269.125 342.963 266.621L342.999 266.606L343.036 266.591C348.986 264.032 354.211 260.479 358.662 255.937L358.665 255.934C362.927 251.579 366.206 246.54 368.486 240.855L368.498 240.823C370.783 235.022 371.9 228.812 371.9 222.244C371.9 215.645 370.727 209.373 368.342 203.479C365.967 197.61 362.55 192.394 358.112 187.865L358.09 187.842L358.068 187.82C353.67 183.433 348.453 180.064 342.486 177.703C336.535 175.31 330.017 174.161 323.005 174.161C315.74 174.161 308.948 175.472 302.702 178.17C296.649 180.732 291.401 184.346 287.025 189.013C282.87 193.363 279.655 198.387 277.387 204.043C275.097 209.753 273.973 215.836 273.973 222.244C273.973 228.411 275.11 234.353 277.387 240.032ZM305.965 239.027L305.939 239C304.035 236.954 302.453 234.505 301.216 231.597C300.127 228.827 299.55 225.729 299.55 222.244C299.55 218.65 300.133 215.509 301.217 212.752C302.453 209.844 304.035 207.395 305.939 205.35L305.938 205.349C308.078 203.072 310.568 201.317 313.444 200.06C316.415 198.803 319.585 198.163 323.005 198.163C326.319 198.163 329.384 198.797 332.252 200.044L332.276 200.054L332.298 200.064C335.322 201.345 337.871 203.087 340.002 205.284C341.828 207.176 343.34 209.557 344.484 212.526L344.515 212.605L344.548 212.684C345.698 215.407 346.324 218.566 346.324 222.244C346.324 225.855 345.734 229.012 344.639 231.779C343.495 234.672 341.965 237.104 340.071 239.137C337.945 241.401 335.418 243.16 332.436 244.424L332.412 244.433L332.39 244.444C329.537 245.684 326.429 246.324 323.005 246.324C319.507 246.324 316.318 245.69 313.383 244.459C310.484 243.113 308.035 241.315 305.989 239.055L305.965 239.027Z" fill="#002535"/>
</svg>
