<svg width="823" height="272" viewBox="0 0 823 272" fill="none" xmlns="http://www.w3.org/2000/svg">
<path d="M249.61 267.644H187.141L183.952 263.775L71.9559 127.89V267.644H0V4.35577H62.4463L65.635 8.19857L178.136 143.78V4.35577H249.61V267.644ZM551.033 4.35577L539.32 21.1279L462.522 131.109L547.486 250.804L559.438 267.644H470.439L467.28 262.994L413.719 184.33L359.28 263.056L356.112 267.644H270.188L281.984 250.847L365.046 132.625L286.344 21.1733L274.474 4.35577H362.43L365.598 8.99768L414.154 80.1717L461.414 9.10232L464.573 4.35577H551.033ZM823 136C823 154.774 819.527 172.76 812.562 189.873L812.525 189.945C805.532 206.773 795.376 221.53 782.124 234.14L782.126 234.142C769.794 246.146 755.237 255.439 738.564 262.056C722.047 268.741 703.954 272 684.444 272C664.529 272 645.934 268.553 628.763 261.53C611.776 254.58 597.043 244.946 584.711 232.583C572.453 220.293 562.847 205.915 555.901 189.536L555.882 189.498L555.864 189.462C548.871 172.625 545.398 154.774 545.398 136C545.398 116.858 549.047 98.6495 556.39 81.4699L556.427 81.3875L556.464 81.3042C564.094 64.2598 574.55 49.3942 587.815 36.7972L587.833 36.7797C600.11 25.1791 614.305 16.2314 630.326 9.94124C646.849 3.25849 664.929 0 684.444 0C704.414 0 723.073 3.63258 740.282 11.0246C757.513 18.287 772.353 28.2172 784.647 40.8706L784.648 40.8697C796.924 53.1786 806.391 67.5951 813.022 84.021L813.024 84.02C819.702 100.233 823 117.595 823 136ZM637.085 185.737C649.029 198.253 664.492 204.707 684.444 204.707C693.781 204.707 702.208 203.162 709.817 200.194C717.572 196.847 724.276 192.297 730.019 186.535L730.149 186.41L730.278 186.291C742.868 174.474 749.602 158.148 749.602 136C749.602 124.869 747.847 115.067 744.522 106.456C741.215 97.8837 736.485 90.9056 730.37 85.3136L730.287 85.2395L730.213 85.1627C724.551 79.7559 717.734 75.4881 709.633 72.4074L709.421 72.3268L709.218 72.2389C701.597 68.9646 693.376 67.2933 684.444 67.2933C674.828 67.2933 665.917 68.9794 657.609 72.2889L657.61 72.2907C649.657 75.5881 642.683 80.381 636.605 86.747L636.439 86.9174C631.155 92.213 626.749 99.0069 623.35 107.535C620.052 115.786 618.315 125.223 618.315 136C618.315 146.776 620.052 156.214 623.35 164.465C626.721 172.922 631.275 179.9 636.919 185.566L637.011 185.651L637.085 185.737Z" fill="#002535"/>
</svg>
